<svg width="6805" height="1160" viewBox="0 0 6805 1160" fill="none" xmlns="http://www.w3.org/2000/svg" xmlns:xlink="http://www.w3.org/1999/xlink">
<path d="M0 174C0 118.772 44.7715 74 100 74H1080V1154H100C44.7715 1154 0 1109.23 0 1054V174Z" fill="#4C98C8"/>
<path d="M0 174C0 118.772 44.7715 74 100 74H1080V1154H100C44.7715 1154 0 1109.23 0 1054V174Z" fill="#4C98C8"/>
<path d="M0 174C0 118.772 44.7715 74 100 74H1080V1154H100C44.7715 1154 0 1109.23 0 1054V174Z" fill="url(#pattern0_60_848)" fill-opacity="0.1"/>
<path d="M1080 194H1050C1038.95 194 1030 202.954 1030 214C1030 225.046 1038.95 234 1050 234H1080V194Z" fill="#5281AF"/>
<path d="M1080 354H1050C1038.95 354 1030 362.954 1030 374C1030 385.046 1038.95 394 1050 394H1080V354Z" fill="#5281AF"/>
<path d="M1080 514H1050C1038.95 514 1030 522.954 1030 534C1030 545.046 1038.95 554 1050 554H1080V514Z" fill="#5281AF"/>
<path d="M1080 674H1050C1038.95 674 1030 682.954 1030 694C1030 705.046 1038.95 714 1050 714H1080V674Z" fill="#5281AF"/>
<path d="M1080 834H1050C1038.95 834 1030 842.954 1030 854C1030 865.046 1038.95 874 1050 874H1080V834Z" fill="#5281AF"/>
<path d="M1080 994H1050C1038.95 994 1030 1002.95 1030 1014C1030 1025.05 1038.95 1034 1050 1034H1080V994Z" fill="#5281AF"/>
<path d="M2160 74H3140C3195.23 74 3240 118.772 3240 174V1054C3240 1109.23 3195.23 1154 3140 1154H2160V74Z" fill="#4C98C8"/>
<path d="M2160 74H3140C3195.23 74 3240 118.772 3240 174V1054C3240 1109.23 3195.23 1154 3140 1154H2160V74Z" fill="#4C98C8"/>
<path d="M2160 74H3140C3195.23 74 3240 118.772 3240 174V1054C3240 1109.23 3195.23 1154 3140 1154H2160V74Z" fill="url(#pattern1_60_848)" fill-opacity="0.1"/>
<path d="M2160 194H2190C2201.05 194 2210 202.954 2210 214C2210 225.046 2201.05 234 2190 234H2160V194Z" fill="#5281AF"/>
<path d="M2160 354H2190C2201.05 354 2210 362.954 2210 374C2210 385.046 2201.05 394 2190 394H2160V354Z" fill="#5281AF"/>
<path d="M2160 514H2190C2201.05 514 2210 522.954 2210 534C2210 545.046 2201.05 554 2190 554H2160V514Z" fill="#5281AF"/>
<path d="M2160 674H2190C2201.05 674 2210 682.954 2210 694C2210 705.046 2201.05 714 2190 714H2160V674Z" fill="#5281AF"/>
<path d="M2160 834H2190C2201.05 834 2210 842.954 2210 854C2210 865.046 2201.05 874 2190 874H2160V834Z" fill="#5281AF"/>
<path d="M2160 994H2190C2201.05 994 2210 1002.95 2210 1014C2210 1025.05 2201.05 1034 2190 1034H2160V994Z" fill="#5281AF"/>
<path d="M1080 74H2160V1154H1080V74Z" fill="#81C2FC"/>
<path d="M1080 74H2160V1154H1080V74Z" fill="#81C2FC"/>
<path d="M1080 74H2160V1154H1080V74Z" fill="url(#pattern2_60_848)" fill-opacity="0.1"/>
<path d="M1080 194H1110C1121.05 194 1130 202.954 1130 214C1130 225.046 1121.05 234 1110 234H1080V194Z" fill="#5281AF"/>
<path d="M1080 354H1110C1121.05 354 1130 362.954 1130 374C1130 385.046 1121.05 394 1110 394H1080V354Z" fill="#5281AF"/>
<path d="M1080 514H1110C1121.05 514 1130 522.954 1130 534C1130 545.046 1121.05 554 1110 554H1080V514Z" fill="#5281AF"/>
<path d="M1080 674H1110C1121.05 674 1130 682.954 1130 694C1130 705.046 1121.05 714 1110 714H1080V674Z" fill="#5281AF"/>
<path d="M1080 834H1110C1121.05 834 1130 842.954 1130 854C1130 865.046 1121.05 874 1110 874H1080V834Z" fill="#5281AF"/>
<path d="M1080 994H1110C1121.05 994 1130 1002.95 1130 1014C1130 1025.05 1121.05 1034 1110 1034H1080V994Z" fill="#5281AF"/>
<path d="M2160 194H2130C2118.95 194 2110 202.954 2110 214C2110 225.046 2118.95 234 2130 234H2160V194Z" fill="#5281AF"/>
<path d="M2160 354H2130C2118.95 354 2110 362.954 2110 374C2110 385.046 2118.95 394 2130 394H2160V354Z" fill="#5281AF"/>
<path d="M2160 514H2130C2118.95 514 2110 522.954 2110 534C2110 545.046 2118.95 554 2130 554H2160V514Z" fill="#5281AF"/>
<path d="M2160 674H2130C2118.95 674 2110 682.954 2110 694C2110 705.046 2118.95 714 2130 714H2160V674Z" fill="#5281AF"/>
<path d="M2160 834H2130C2118.95 834 2110 842.954 2110 854C2110 865.046 2118.95 874 2130 874H2160V834Z" fill="#5281AF"/>
<path d="M2160 994H2130C2118.95 994 2110 1002.95 2110 1014C2110 1025.05 2118.95 1034 2130 1034H2160V994Z" fill="#5281AF"/>
<path d="M3510.09 573.5V448.5H3850.91V573.5H3510.09ZM3510.09 802.016V677.016H3850.91V802.016H3510.09Z" fill="#4C98C8"/>
<path d="M1474.43 246C1505.25 246 1530.23 270.985 1530.23 301.805V448.223C1568.28 465.313 1602.12 501.447 1628.41 550.642C1630.32 549.363 1632.22 548.169 1634.13 547.066C1686.22 516.901 1723.08 616.348 1773.36 626.565C1823.64 636.783 1896.39 559.609 1932.58 607.713C1973.9 662.644 1983.94 800.275 1972.28 857.693C1967.21 882.642 1956.24 901.272 1941.05 914.903C1965.14 924.218 1981 940.068 1981 958.056C1981 986.726 1940.71 993.529 1891.02 993.529C1841.32 993.529 1801.04 986.726 1801.04 958.056C1801.04 954.155 1801.79 950.354 1803.2 946.698C1783.04 945.391 1762.44 942.718 1742.22 939.318C1746.12 945.131 1748.26 951.449 1748.26 958.056C1748.26 986.726 1707.98 993.529 1658.28 993.529C1638.2 993.529 1619.66 992.417 1604.69 989.202C1582.45 989.067 1564.79 971.036 1552.98 952.153C1537.99 928.161 1511.33 912.201 1480.95 912.201C1450.57 912.201 1423.92 928.161 1408.92 952.153C1397.07 971.107 1379.32 989.203 1356.97 989.203H1334.04C1315.28 989.203 1298.5 977.153 1293.81 958.987C1281.74 912.133 1275 859.952 1275 804.951C1275 640.297 1335.38 500.917 1418.62 454.051V301.805C1418.62 270.985 1443.61 246 1474.43 246Z" fill="#FFAE3E"/>
<path d="M1869.5 842.141C1871.1 838.934 1875 837.63 1878.2 839.228L1919.63 859.872C1922.84 861.47 1924.15 865.366 1922.55 868.574C1920.95 871.781 1917.05 873.085 1913.85 871.487L1872.42 850.844C1869.21 849.246 1867.9 845.349 1869.5 842.141Z" fill="black"/>
<path d="M1871.44 825.71C1872.16 822.198 1875.58 819.93 1879.1 820.643L1924.46 829.861C1927.97 830.574 1930.24 834 1929.52 837.512C1928.81 841.024 1925.38 843.293 1921.87 842.579L1876.51 833.361C1873 832.647 1870.73 829.222 1871.44 825.71Z" fill="black"/>
<path d="M1721.13 763.823C1722.99 754.692 1735.12 749.45 1748.23 752.114C1761.34 754.778 1770.47 764.34 1768.61 773.472C1767.07 781.076 1758.39 785.982 1747.96 785.872C1747.95 785.962 1747.94 786.053 1747.93 786.144C1747.91 786.253 1747.89 786.363 1747.87 786.472C1747.25 789.5 1749.19 794.354 1755.03 799.747C1760.56 804.853 1767.69 808.6 1772.83 809.644C1782.36 811.58 1791.7 805.399 1793.65 795.777C1794.37 792.265 1797.79 789.996 1801.31 790.71C1804.82 791.423 1807.09 794.849 1806.37 798.361C1803 814.961 1786.84 825.734 1770.25 822.362C1762.32 820.751 1753.11 815.643 1746.22 809.279C1743.42 806.691 1740.63 803.531 1738.5 799.977C1735.16 802.418 1731.35 804.239 1727.76 805.529C1718.94 808.699 1708.47 809.808 1700.54 808.198C1683.95 804.825 1673.28 788.6 1676.65 772C1677.36 768.488 1680.79 766.22 1684.3 766.934C1687.81 767.647 1690.08 771.072 1689.37 774.584C1687.41 784.207 1693.6 793.543 1703.13 795.479C1708.26 796.523 1716.3 795.858 1723.38 793.314C1730.86 790.627 1734.54 786.916 1735.15 783.889C1735.17 783.779 1735.2 783.67 1735.23 783.562C1735.25 783.474 1735.27 783.386 1735.3 783.299C1725.65 779.33 1719.58 771.427 1721.13 763.823Z" fill="black"/>
<path d="M1928.37 799.982C1931.95 799.762 1935.03 802.484 1935.25 806.061C1935.47 809.638 1932.75 812.716 1929.17 812.935L1882.97 815.772C1879.39 815.991 1876.31 813.269 1876.09 809.692C1875.87 806.116 1878.6 803.038 1882.17 802.818L1928.37 799.982Z" fill="black"/>
<path d="M1594.14 781.504C1597.72 781.285 1600.79 784.006 1601.01 787.583C1601.23 791.16 1598.51 794.238 1594.94 794.458L1548.73 797.295C1545.16 797.514 1542.08 794.792 1541.86 791.216C1541.64 787.639 1544.36 784.56 1547.94 784.341L1594.14 781.504Z" fill="black"/>
<path d="M1815.52 768.939C1817.85 757.466 1829.04 750.056 1840.51 752.388C1851.98 754.72 1859.39 765.911 1857.06 777.384C1854.73 788.856 1843.54 796.266 1832.07 793.934C1820.59 791.602 1813.18 780.411 1815.52 768.939Z" fill="black"/>
<path d="M1547.56 759.895C1548.27 756.383 1551.7 754.114 1555.21 754.828L1600.57 764.045C1604.08 764.758 1606.35 768.184 1605.64 771.696C1604.93 775.208 1601.5 777.477 1597.99 776.763L1552.63 767.545C1549.11 766.832 1546.85 763.406 1547.56 759.895Z" fill="black"/>
<path d="M1554.57 728.704C1556.16 725.496 1560.06 724.191 1563.27 725.789L1604.7 746.433C1607.9 748.032 1609.21 751.928 1607.61 755.135C1606.01 758.343 1602.12 759.648 1598.91 758.049L1557.48 737.405C1554.27 735.807 1552.97 731.911 1554.57 728.704Z" fill="black"/>
<path d="M1635.77 732.402C1638.1 720.93 1649.29 713.52 1660.76 715.852C1672.24 718.184 1679.65 729.374 1677.31 740.847C1674.98 752.319 1663.79 759.729 1652.32 757.397C1640.85 755.065 1633.44 743.874 1635.77 732.402Z" fill="black"/>
<path d="M1493.89 413.415L1418.62 438.474V388.355L1493.89 413.415ZM1530.23 387.432L1465.34 365.83L1530.23 344.226V387.432ZM1493.89 313.918L1418.62 338.977V301.805C1418.62 297.515 1419.11 293.337 1420.02 289.324L1493.89 313.918Z" fill="#B15F00"/>
<path d="M1646.45 542.372C1649.55 540.576 1653.52 541.635 1655.32 544.736C1657.12 547.837 1656.06 551.808 1652.96 553.603C1624.76 569.928 1594.86 607.952 1570.32 649.976C1545.88 691.827 1527.59 736.19 1521.95 763.94C1516.76 789.492 1520.32 810.775 1529.9 828.798C1539.56 846.948 1555.56 862.252 1575.97 875.238C1616.91 901.298 1674.11 917.135 1727.86 928.057C1731.37 928.77 1733.64 932.196 1732.92 935.707C1732.21 939.219 1728.79 941.488 1725.27 940.774C1671.32 929.81 1612.09 913.614 1569 886.187C1547.38 872.429 1529.47 855.626 1518.45 834.892C1507.35 814.031 1503.48 789.653 1509.23 761.355C1515.26 731.687 1534.28 685.943 1559.11 643.431C1583.84 601.091 1615.16 560.493 1646.45 542.372Z" fill="#B15F00"/>
<path d="M354.428 246C385.248 246 410.233 270.985 410.233 301.805V448.223C448.283 465.313 482.119 501.447 508.406 550.642C510.316 549.363 512.225 548.169 514.13 547.066C566.223 516.901 603.078 616.348 653.361 626.565C703.644 636.783 776.391 559.609 812.579 607.713C853.901 662.644 863.944 800.275 852.276 857.693C847.206 882.642 836.242 901.272 821.051 914.903C845.141 924.218 861 940.068 861 958.056C861 986.726 820.714 993.529 771.02 993.529C721.325 993.529 681.039 986.726 681.039 958.056C681.039 954.155 681.786 950.354 683.2 946.698C663.038 945.391 642.442 942.718 622.219 939.318C626.121 945.131 628.262 951.449 628.262 958.056C628.262 986.726 587.977 993.529 538.282 993.529C518.201 993.529 499.658 992.417 484.687 989.202C462.451 989.067 444.79 971.036 432.985 952.153C417.985 928.161 391.332 912.201 360.951 912.201C330.57 912.201 303.918 928.161 288.918 952.153C277.068 971.107 259.319 989.203 236.965 989.203H214.043C195.283 989.203 178.497 977.153 173.815 958.987C161.738 912.133 155 859.952 155 804.951C155 640.297 215.381 500.917 298.623 454.051V301.805C298.623 270.985 323.607 246 354.428 246Z" fill="#FFAE3E"/>
<path d="M749.502 842.141C751.101 838.934 754.997 837.63 758.204 839.228L799.634 859.872C802.841 861.47 804.145 865.366 802.547 868.574C800.949 871.781 797.053 873.085 793.845 871.487L752.416 850.844C749.208 849.246 747.904 845.349 749.502 842.141Z" fill="black"/>
<path d="M751.445 825.71C752.159 822.198 755.584 819.93 759.096 820.643L804.458 829.861C807.969 830.574 810.237 834 809.524 837.512C808.81 841.024 805.385 843.293 801.873 842.579L756.512 833.361C753 832.647 750.731 829.222 751.445 825.71Z" fill="black"/>
<path d="M601.13 763.823C602.985 754.692 615.118 749.45 628.23 752.114C641.341 754.778 650.466 764.34 648.611 773.472C647.065 781.076 638.391 785.982 627.961 785.872C627.951 785.962 627.942 786.053 627.928 786.144C627.911 786.253 627.892 786.363 627.87 786.472C627.255 789.5 629.194 794.354 635.031 799.747C640.558 804.853 647.694 808.6 652.831 809.644C662.358 811.58 671.699 805.399 673.654 795.777C674.368 792.265 677.794 789.996 681.306 790.71C684.818 791.423 687.086 794.849 686.373 798.361C682.999 814.961 666.844 825.734 650.247 822.362C642.322 820.751 633.113 815.643 626.225 809.279C623.424 806.691 620.631 803.531 618.503 799.977C615.157 802.418 611.353 804.239 607.765 805.529C598.939 808.699 588.466 809.808 580.542 808.198C563.945 804.825 553.276 788.6 556.649 772C557.363 768.488 560.788 766.22 564.3 766.934C567.812 767.647 570.08 771.072 569.367 774.584C567.411 784.207 573.599 793.543 583.126 795.479C588.263 796.523 596.296 795.858 603.377 793.314C610.856 790.627 614.537 786.916 615.152 783.889C615.174 783.779 615.199 783.67 615.226 783.562C615.249 783.474 615.274 783.386 615.301 783.299C605.655 779.33 599.584 771.427 601.13 763.823Z" fill="black"/>
<path d="M808.374 799.982C811.951 799.762 815.028 802.484 815.248 806.061C815.468 809.638 812.746 812.716 809.169 812.935L762.968 815.772C759.391 815.991 756.313 813.269 756.094 809.692C755.874 806.116 758.596 803.038 762.173 802.818L808.374 799.982Z" fill="black"/>
<path d="M474.14 781.504C477.717 781.285 480.795 784.006 481.014 787.583C481.234 791.16 478.512 794.238 474.935 794.458L428.734 797.295C425.157 797.514 422.08 794.792 421.86 791.216C421.64 787.639 424.362 784.56 427.939 784.341L474.14 781.504Z" fill="black"/>
<path d="M695.516 768.939C697.848 757.466 709.038 750.056 720.511 752.388C731.983 754.72 739.392 765.911 737.06 777.384C734.728 788.856 723.538 796.266 712.066 793.934C700.593 791.602 693.184 780.411 695.516 768.939Z" fill="black"/>
<path d="M427.56 759.895C428.274 756.383 431.699 754.114 435.211 754.828L480.572 764.045C484.084 764.758 486.352 768.184 485.639 771.696C484.925 775.208 481.499 777.477 477.987 776.763L432.627 767.545C429.115 766.832 426.846 763.406 427.56 759.895Z" fill="black"/>
<path d="M434.565 728.704C436.163 725.496 440.059 724.191 443.267 725.789L484.697 746.433C487.904 748.032 489.208 751.928 487.61 755.135C486.012 758.343 482.116 759.648 478.908 758.049L437.479 737.405C434.272 735.807 432.967 731.911 434.565 728.704Z" fill="black"/>
<path d="M515.77 732.402C518.102 720.93 529.292 713.52 540.765 715.852C552.237 718.184 559.647 729.374 557.315 740.847C554.983 752.319 543.792 759.729 532.32 757.397C520.847 755.065 513.438 743.874 515.77 732.402Z" fill="black"/>
<path d="M373.894 413.415L298.621 438.474V388.355L373.894 413.415ZM410.231 387.432L345.342 365.83L410.231 344.226V387.432ZM373.894 313.918L298.621 338.977V301.805C298.621 297.515 299.106 293.337 300.022 289.324L373.894 313.918Z" fill="#B15F00"/>
<path d="M526.452 542.372C529.553 540.576 533.524 541.635 535.32 544.736C537.115 547.837 536.057 551.808 532.955 553.603C504.765 569.928 474.86 607.952 450.317 649.976C425.876 691.827 407.586 736.19 401.948 763.94C396.755 789.492 400.32 810.775 409.904 828.798C419.556 846.948 435.563 862.252 455.966 875.238C496.909 901.298 554.112 917.135 607.857 928.057C611.369 928.77 613.638 932.196 612.924 935.707C612.211 939.219 608.786 941.488 605.274 940.774C551.319 929.81 492.089 913.614 448.998 886.187C427.383 872.429 409.472 855.626 398.445 834.892C387.352 814.031 383.479 789.653 389.229 761.355C395.258 731.687 414.283 685.943 439.111 643.431C463.839 601.091 495.158 560.493 526.452 542.372Z" fill="#B15F00"/>
<path d="M2562.43 252C2593.25 252 2618.23 276.985 2618.23 307.805V454.223C2656.28 471.313 2690.12 507.447 2716.41 556.642C2718.32 555.363 2720.22 554.169 2722.13 553.066C2774.22 522.901 2811.08 622.348 2861.36 632.565C2911.64 642.783 2984.39 565.609 3020.58 613.713C3061.9 668.644 3071.94 806.275 3060.28 863.693C3055.21 888.642 3044.24 907.272 3029.05 920.903C3053.14 930.218 3069 946.068 3069 964.056C3069 992.726 3028.71 999.529 2979.02 999.529C2929.32 999.529 2889.04 992.726 2889.04 964.056C2889.04 960.155 2889.79 956.354 2891.2 952.698C2871.04 951.391 2850.44 948.718 2830.22 945.318C2834.12 951.131 2836.26 957.449 2836.26 964.056C2836.26 992.726 2795.98 999.529 2746.28 999.529C2726.2 999.529 2707.66 998.417 2692.69 995.202C2670.45 995.067 2652.79 977.036 2640.98 958.153C2625.99 934.161 2599.33 918.201 2568.95 918.201C2538.57 918.201 2511.92 934.161 2496.92 958.153C2485.07 977.107 2467.32 995.203 2444.97 995.203H2422.04C2403.28 995.203 2386.5 983.153 2381.81 964.987C2369.74 918.133 2363 865.952 2363 810.951C2363 646.297 2423.38 506.917 2506.62 460.051V307.805C2506.62 276.985 2531.61 252 2562.43 252Z" fill="#FFAE3E"/>
<path d="M2957.5 848.141C2959.1 844.934 2963 843.63 2966.2 845.228L3007.63 865.872C3010.84 867.47 3012.15 871.366 3010.55 874.574C3008.95 877.781 3005.05 879.085 3001.85 877.487L2960.42 856.844C2957.21 855.246 2955.9 851.349 2957.5 848.141Z" fill="black"/>
<path d="M2959.44 831.71C2960.16 828.198 2963.58 825.93 2967.1 826.643L3012.46 835.861C3015.97 836.574 3018.24 840 3017.52 843.512C3016.81 847.024 3013.38 849.293 3009.87 848.579L2964.51 839.361C2961 838.647 2958.73 835.222 2959.44 831.71Z" fill="black"/>
<path d="M2809.13 769.823C2810.99 760.692 2823.12 755.45 2836.23 758.114C2849.34 760.778 2858.47 770.34 2856.61 779.472C2855.07 787.076 2846.39 791.982 2835.96 791.872C2835.95 791.962 2835.94 792.053 2835.93 792.144C2835.91 792.253 2835.89 792.363 2835.87 792.472C2835.25 795.5 2837.19 800.354 2843.03 805.747C2848.56 810.853 2855.69 814.6 2860.83 815.644C2870.36 817.58 2879.7 811.399 2881.65 801.777C2882.37 798.265 2885.79 795.996 2889.31 796.71C2892.82 797.423 2895.09 800.849 2894.37 804.361C2891 820.961 2874.84 831.734 2858.25 828.362C2850.32 826.751 2841.11 821.643 2834.22 815.279C2831.42 812.691 2828.63 809.531 2826.5 805.977C2823.16 808.418 2819.35 810.239 2815.76 811.529C2806.94 814.699 2796.47 815.808 2788.54 814.198C2771.95 810.825 2761.28 794.6 2764.65 778C2765.36 774.488 2768.79 772.22 2772.3 772.934C2775.81 773.647 2778.08 777.072 2777.37 780.584C2775.41 790.207 2781.6 799.543 2791.13 801.479C2796.26 802.523 2804.3 801.858 2811.38 799.314C2818.86 796.627 2822.54 792.916 2823.15 789.889C2823.17 789.779 2823.2 789.67 2823.23 789.562C2823.25 789.474 2823.27 789.386 2823.3 789.299C2813.65 785.33 2807.58 777.427 2809.13 769.823Z" fill="black"/>
<path d="M3016.37 805.982C3019.95 805.762 3023.03 808.484 3023.25 812.061C3023.47 815.638 3020.75 818.716 3017.17 818.935L2970.97 821.772C2967.39 821.991 2964.31 819.269 2964.09 815.692C2963.87 812.116 2966.6 809.038 2970.17 808.818L3016.37 805.982Z" fill="black"/>
<path d="M2682.14 787.504C2685.72 787.285 2688.79 790.006 2689.01 793.583C2689.23 797.16 2686.51 800.238 2682.94 800.458L2636.73 803.295C2633.16 803.514 2630.08 800.792 2629.86 797.216C2629.64 793.639 2632.36 790.56 2635.94 790.341L2682.14 787.504Z" fill="black"/>
<path d="M2903.52 774.939C2905.85 763.466 2917.04 756.056 2928.51 758.388C2939.98 760.72 2947.39 771.911 2945.06 783.384C2942.73 794.856 2931.54 802.266 2920.07 799.934C2908.59 797.602 2901.18 786.411 2903.52 774.939Z" fill="black"/>
<path d="M2635.56 765.895C2636.27 762.383 2639.7 760.114 2643.21 760.828L2688.57 770.045C2692.08 770.758 2694.35 774.184 2693.64 777.696C2692.93 781.208 2689.5 783.477 2685.99 782.763L2640.63 773.545C2637.11 772.832 2634.85 769.406 2635.56 765.895Z" fill="black"/>
<path d="M2642.57 734.704C2644.16 731.496 2648.06 730.191 2651.27 731.789L2692.7 752.433C2695.9 754.032 2697.21 757.928 2695.61 761.135C2694.01 764.343 2690.12 765.648 2686.91 764.049L2645.48 743.405C2642.27 741.807 2640.97 737.911 2642.57 734.704Z" fill="black"/>
<path d="M2723.77 738.402C2726.1 726.93 2737.29 719.52 2748.76 721.852C2760.24 724.184 2767.65 735.374 2765.31 746.847C2762.98 758.319 2751.79 765.729 2740.32 763.397C2728.85 761.065 2721.44 749.874 2723.77 738.402Z" fill="black"/>
<path d="M2581.89 419.415L2506.62 444.474V394.355L2581.89 419.415ZM2618.23 393.432L2553.34 371.83L2618.23 350.226V393.432ZM2581.89 319.918L2506.62 344.977V307.805C2506.62 303.515 2507.11 299.337 2508.02 295.324L2581.89 319.918Z" fill="#B15F00"/>
<path d="M2734.45 548.372C2737.55 546.576 2741.52 547.635 2743.32 550.736C2745.12 553.837 2744.06 557.808 2740.96 559.603C2712.76 575.928 2682.86 613.952 2658.32 655.976C2633.88 697.827 2615.59 742.19 2609.95 769.94C2604.76 795.492 2608.32 816.775 2617.9 834.798C2627.56 852.948 2643.56 868.252 2663.97 881.238C2704.91 907.298 2762.11 923.135 2815.86 934.057C2819.37 934.77 2821.64 938.196 2820.92 941.707C2820.21 945.219 2816.79 947.488 2813.27 946.774C2759.32 935.81 2700.09 919.614 2657 892.187C2635.38 878.429 2617.47 861.626 2606.45 840.892C2595.35 820.031 2591.48 795.653 2597.23 767.355C2603.26 737.687 2622.28 691.943 2647.11 649.431C2671.84 607.091 2703.16 566.493 2734.45 548.372Z" fill="#B15F00"/>
<path d="M4554.44 311.433C4652.07 311.433 4709.83 190.786 4764.11 293.28C4795.86 353.233 4844.39 462.615 4875.34 576.468C4899.69 666.041 4917 758.382 4917 831.598C4917 851.282 4916.41 870.74 4915.25 889.927C4910.94 961.444 4848.06 1012.14 4776.41 1012.14H4334.59C4262.94 1012.14 4200.06 961.444 4195.75 889.927C4194.59 870.74 4194 851.282 4194 831.598C4194 758.382 4210.9 666.041 4234.79 576.468C4265.16 462.615 4313.03 353.233 4344.78 293.28C4399.06 190.786 4456.82 311.433 4554.44 311.433Z" fill="#FFAE3E"/>
<path d="M4693.53 515.97C4694.45 512.514 4698.01 510.463 4701.46 511.389L4746.1 523.347C4749.56 524.273 4751.61 527.825 4750.68 531.281C4749.76 534.737 4746.2 536.788 4742.75 535.862L4698.11 523.905C4694.65 522.979 4692.6 519.426 4693.53 515.97Z" fill="black"/>
<path d="M4692.16 499.508C4692.16 495.93 4695.06 493.029 4698.64 493.028L4744.85 493.025C4748.43 493.025 4751.33 495.926 4751.33 499.504C4751.33 503.082 4748.43 505.982 4744.85 505.983L4698.64 505.985C4695.06 505.985 4692.16 503.085 4692.16 499.508Z" fill="black"/>
<path d="M4532.79 468.852C4532.79 459.549 4543.61 452.008 4556.97 452.007C4570.33 452.006 4581.16 459.547 4581.16 468.85C4581.16 476.597 4573.65 483.122 4563.42 485.088C4563.43 485.179 4563.44 485.269 4563.44 485.361C4563.45 485.471 4563.45 485.582 4563.45 485.694C4563.45 488.778 4566.32 493.142 4573.1 497.257C4579.52 501.154 4587.25 503.401 4592.48 503.401C4602.19 503.4 4610.1 495.495 4610.1 485.692C4610.1 482.114 4613 479.213 4616.58 479.213C4620.15 479.212 4623.06 482.113 4623.06 485.691C4623.06 502.603 4609.39 516.356 4592.48 516.357C4584.41 516.358 4574.38 513.191 4566.38 508.335C4563.12 506.36 4559.76 503.823 4556.97 500.769C4554.19 503.823 4550.83 506.362 4547.57 508.337C4539.57 513.194 4529.54 516.361 4521.47 516.362C4504.56 516.363 4490.9 502.611 4490.89 485.698C4490.89 482.121 4493.79 479.221 4497.37 479.22C4500.95 479.22 4503.85 482.12 4503.85 485.698C4503.85 495.501 4511.76 503.405 4521.47 503.404C4526.7 503.404 4534.43 501.156 4540.85 497.259C4547.63 493.143 4550.5 488.78 4550.5 485.695C4550.5 485.583 4550.5 485.472 4550.5 485.362C4550.51 485.27 4550.52 485.179 4550.52 485.089C4540.3 483.124 4532.79 476.599 4532.79 468.852Z" fill="black"/>
<path d="M4742.74 463.014C4746.2 462.087 4749.75 464.138 4750.68 467.594C4751.6 471.05 4749.55 474.603 4746.09 475.529L4701.46 487.492C4698 488.418 4694.45 486.367 4693.52 482.911C4692.6 479.456 4694.65 475.903 4698.1 474.977L4742.74 463.014Z" fill="black"/>
<path d="M4412.06 511.406C4415.52 510.48 4419.07 512.531 4419.99 515.987C4420.92 519.443 4418.87 522.995 4415.41 523.922L4370.78 535.886C4367.32 536.812 4363.77 534.761 4362.84 531.305C4361.92 527.849 4363.97 524.296 4367.42 523.37L4412.06 511.406Z" fill="black"/>
<path d="M4626.15 455.086C4626.15 443.398 4635.62 433.923 4647.31 433.923C4659 433.923 4668.48 443.399 4668.48 455.087C4668.48 466.774 4659 476.25 4647.31 476.25C4635.62 476.25 4626.15 466.774 4626.15 455.086Z" fill="black"/>
<path d="M4362.19 499.528C4362.19 495.95 4365.09 493.049 4368.67 493.049L4414.88 493.045C4418.46 493.045 4421.36 495.946 4421.36 499.524C4421.36 503.102 4418.46 506.003 4414.88 506.003L4368.67 506.005C4365.09 506.005 4362.19 503.106 4362.19 499.528Z" fill="black"/>
<path d="M4362.84 467.618C4363.77 464.162 4367.32 462.11 4370.77 463.036L4415.41 474.994C4418.87 475.92 4420.92 479.473 4419.99 482.929C4419.07 486.385 4415.52 488.436 4412.06 487.51L4367.42 475.552C4363.97 474.626 4361.91 471.074 4362.84 467.618Z" fill="black"/>
<path d="M4443.02 455.086C4443.02 443.399 4452.5 433.923 4464.19 433.923C4475.87 433.923 4485.35 443.399 4485.35 455.087C4485.35 466.775 4475.87 476.25 4464.19 476.25C4452.5 476.25 4443.02 466.774 4443.02 455.086Z" fill="black"/>
<path d="M4263.97 755.89L4199.24 753.059C4200.39 743.599 4201.71 733.987 4203.2 724.255L4263.97 755.89ZM4907.62 724.453C4909.13 734.122 4910.47 743.673 4911.64 753.074L4847.23 755.89L4907.62 724.453ZM4307.16 689.378L4209.88 685.124C4212.49 671.276 4215.36 657.279 4218.47 643.216L4307.16 689.378ZM4892.06 643.561C4895.21 657.516 4898.12 671.406 4900.77 685.148L4804.04 689.378L4892.06 643.561ZM4340.38 614.227L4226.4 609.244C4229.08 598.304 4231.89 587.366 4234.79 576.468C4236.13 571.441 4237.51 566.423 4238.92 561.417L4340.38 614.227ZM4871.29 561.935C4872.67 566.769 4874.02 571.614 4875.34 576.468C4878.31 587.378 4881.17 598.33 4883.9 609.283L4770.82 614.227L4871.29 561.935ZM4556.36 378.913L4533.28 309.566C4540.12 310.763 4547.17 311.433 4554.44 311.433C4563.18 311.433 4571.59 310.466 4579.71 308.781L4556.36 378.913ZM4485.15 292.711C4498.45 299.368 4512.6 305.169 4527.78 308.485L4489.55 366.436L4485.15 292.711ZM4623.84 366.436L4585 307.575C4600.48 303.727 4614.87 297.387 4628.38 290.338L4623.84 366.436Z" fill="#B15F00"/>
<path d="M5498.44 311.433C5596.07 311.433 5653.83 190.786 5708.11 293.28C5739.86 353.233 5788.39 462.615 5819.34 576.468C5843.69 666.041 5861 758.382 5861 831.598C5861 851.282 5860.41 870.74 5859.25 889.927C5854.94 961.444 5792.06 1012.14 5720.41 1012.14H5278.59C5206.94 1012.14 5144.06 961.444 5139.75 889.927C5138.59 870.74 5138 851.282 5138 831.598C5138 758.382 5154.9 666.041 5178.79 576.468C5209.16 462.615 5257.03 353.233 5288.78 293.28C5343.06 190.786 5400.82 311.433 5498.44 311.433Z" fill="#FFAE3E"/>
<path d="M5637.53 515.97C5638.45 512.514 5642.01 510.463 5645.46 511.389L5690.1 523.347C5693.56 524.273 5695.61 527.825 5694.68 531.281C5693.76 534.737 5690.2 536.788 5686.75 535.862L5642.11 523.905C5638.65 522.979 5636.6 519.426 5637.53 515.97Z" fill="black"/>
<path d="M5636.16 499.508C5636.16 495.93 5639.06 493.029 5642.64 493.028L5688.85 493.025C5692.43 493.025 5695.33 495.926 5695.33 499.504C5695.33 503.082 5692.43 505.982 5688.85 505.983L5642.64 505.985C5639.06 505.985 5636.16 503.085 5636.16 499.508Z" fill="black"/>
<path d="M5476.79 468.852C5476.79 459.549 5487.61 452.008 5500.97 452.007C5514.33 452.006 5525.16 459.547 5525.16 468.85C5525.16 476.597 5517.65 483.122 5507.42 485.088C5507.43 485.179 5507.44 485.269 5507.44 485.361C5507.45 485.471 5507.45 485.582 5507.45 485.694C5507.45 488.778 5510.32 493.142 5517.1 497.257C5523.52 501.154 5531.25 503.401 5536.48 503.401C5546.19 503.4 5554.1 495.495 5554.1 485.692C5554.1 482.114 5557 479.213 5560.58 479.213C5564.15 479.212 5567.06 482.113 5567.06 485.691C5567.06 502.603 5553.39 516.356 5536.48 516.357C5528.41 516.358 5518.38 513.191 5510.38 508.335C5507.12 506.36 5503.76 503.823 5500.97 500.769C5498.19 503.823 5494.83 506.362 5491.57 508.337C5483.57 513.194 5473.54 516.361 5465.47 516.362C5448.56 516.363 5434.9 502.611 5434.89 485.698C5434.89 482.121 5437.79 479.221 5441.37 479.22C5444.95 479.22 5447.85 482.12 5447.85 485.698C5447.85 495.501 5455.76 503.405 5465.47 503.404C5470.7 503.404 5478.43 501.156 5484.85 497.259C5491.63 493.143 5494.5 488.78 5494.5 485.695C5494.5 485.583 5494.5 485.472 5494.5 485.362C5494.51 485.27 5494.52 485.179 5494.52 485.089C5484.3 483.124 5476.79 476.599 5476.79 468.852Z" fill="black"/>
<path d="M5686.74 463.014C5690.2 462.087 5693.75 464.138 5694.68 467.594C5695.6 471.05 5693.55 474.603 5690.09 475.529L5645.46 487.492C5642 488.418 5638.45 486.367 5637.52 482.911C5636.6 479.456 5638.65 475.903 5642.1 474.977L5686.74 463.014Z" fill="black"/>
<path d="M5356.06 511.406C5359.52 510.48 5363.07 512.531 5363.99 515.987C5364.92 519.443 5362.87 522.995 5359.41 523.922L5314.78 535.886C5311.32 536.812 5307.77 534.761 5306.84 531.305C5305.92 527.849 5307.97 524.296 5311.42 523.37L5356.06 511.406Z" fill="black"/>
<path d="M5570.15 455.086C5570.15 443.398 5579.62 433.923 5591.31 433.923C5603 433.923 5612.48 443.399 5612.48 455.087C5612.48 466.774 5603 476.25 5591.31 476.25C5579.62 476.25 5570.15 466.774 5570.15 455.086Z" fill="black"/>
<path d="M5306.19 499.528C5306.19 495.95 5309.09 493.049 5312.67 493.049L5358.88 493.045C5362.46 493.045 5365.36 495.946 5365.36 499.524C5365.36 503.102 5362.46 506.003 5358.88 506.003L5312.67 506.005C5309.09 506.005 5306.19 503.106 5306.19 499.528Z" fill="black"/>
<path d="M5306.84 467.618C5307.77 464.162 5311.32 462.11 5314.77 463.036L5359.41 474.994C5362.87 475.92 5364.92 479.473 5363.99 482.929C5363.07 486.385 5359.52 488.436 5356.06 487.51L5311.42 475.552C5307.97 474.626 5305.91 471.074 5306.84 467.618Z" fill="black"/>
<path d="M5387.02 455.086C5387.02 443.399 5396.5 433.923 5408.19 433.923C5419.87 433.923 5429.35 443.399 5429.35 455.087C5429.35 466.775 5419.87 476.25 5408.19 476.25C5396.5 476.25 5387.02 466.774 5387.02 455.086Z" fill="black"/>
<path d="M5207.97 755.89L5143.24 753.059C5144.39 743.599 5145.71 733.987 5147.2 724.255L5207.97 755.89ZM5851.62 724.453C5853.13 734.122 5854.47 743.673 5855.64 753.074L5791.23 755.89L5851.62 724.453ZM5251.16 689.378L5153.88 685.124C5156.49 671.276 5159.36 657.279 5162.47 643.216L5251.16 689.378ZM5836.06 643.561C5839.21 657.516 5842.12 671.406 5844.77 685.148L5748.04 689.378L5836.06 643.561ZM5284.38 614.227L5170.4 609.244C5173.08 598.304 5175.89 587.366 5178.79 576.468C5180.13 571.441 5181.51 566.423 5182.92 561.417L5284.38 614.227ZM5815.29 561.935C5816.67 566.769 5818.02 571.614 5819.34 576.468C5822.31 587.378 5825.17 598.33 5827.9 609.283L5714.82 614.227L5815.29 561.935ZM5500.36 378.913L5477.28 309.566C5484.12 310.763 5491.17 311.433 5498.44 311.433C5507.18 311.433 5515.59 310.466 5523.71 308.781L5500.36 378.913ZM5429.15 292.711C5442.45 299.368 5456.6 305.169 5471.78 308.485L5433.55 366.436L5429.15 292.711ZM5567.84 366.436L5529 307.575C5544.48 303.727 5558.87 297.387 5572.38 290.338L5567.84 366.436Z" fill="#B15F00"/>
<path d="M6442.44 311.433C6540.07 311.433 6597.83 190.786 6652.11 293.28C6683.86 353.233 6732.39 462.615 6763.34 576.468C6787.69 666.041 6805 758.382 6805 831.598C6805 851.282 6804.41 870.74 6803.25 889.927C6798.94 961.444 6736.06 1012.14 6664.41 1012.14H6222.59C6150.94 1012.14 6088.06 961.444 6083.75 889.927C6082.59 870.74 6082 851.282 6082 831.598C6082 758.382 6098.9 666.041 6122.79 576.468C6153.16 462.615 6201.03 353.233 6232.78 293.28C6287.06 190.786 6344.82 311.433 6442.44 311.433Z" fill="#FFAE3E"/>
<path d="M6581.53 515.97C6582.45 512.514 6586.01 510.463 6589.46 511.389L6634.1 523.347C6637.56 524.273 6639.61 527.825 6638.68 531.281C6637.76 534.737 6634.2 536.788 6630.75 535.862L6586.11 523.905C6582.65 522.979 6580.6 519.426 6581.53 515.97Z" fill="black"/>
<path d="M6580.16 499.508C6580.16 495.93 6583.06 493.029 6586.64 493.028L6632.85 493.025C6636.43 493.025 6639.33 495.926 6639.33 499.504C6639.33 503.082 6636.43 505.982 6632.85 505.983L6586.64 505.985C6583.06 505.985 6580.16 503.085 6580.16 499.508Z" fill="black"/>
<path d="M6420.79 468.852C6420.79 459.549 6431.61 452.008 6444.97 452.007C6458.33 452.006 6469.16 459.547 6469.16 468.85C6469.16 476.597 6461.65 483.122 6451.42 485.088C6451.43 485.179 6451.44 485.269 6451.44 485.361C6451.45 485.471 6451.45 485.582 6451.45 485.694C6451.45 488.778 6454.32 493.142 6461.1 497.257C6467.52 501.154 6475.25 503.401 6480.48 503.401C6490.19 503.4 6498.1 495.495 6498.1 485.692C6498.1 482.114 6501 479.213 6504.58 479.213C6508.15 479.212 6511.06 482.113 6511.06 485.691C6511.06 502.603 6497.39 516.356 6480.48 516.357C6472.41 516.358 6462.38 513.191 6454.38 508.335C6451.12 506.36 6447.76 503.823 6444.97 500.769C6442.19 503.823 6438.83 506.362 6435.57 508.337C6427.57 513.194 6417.54 516.361 6409.47 516.362C6392.56 516.363 6378.9 502.611 6378.89 485.698C6378.89 482.121 6381.79 479.221 6385.37 479.22C6388.95 479.22 6391.85 482.12 6391.85 485.698C6391.85 495.501 6399.76 503.405 6409.47 503.404C6414.7 503.404 6422.43 501.156 6428.85 497.259C6435.63 493.143 6438.5 488.78 6438.5 485.695C6438.5 485.583 6438.5 485.472 6438.5 485.362C6438.51 485.27 6438.52 485.179 6438.52 485.089C6428.3 483.124 6420.79 476.599 6420.79 468.852Z" fill="black"/>
<path d="M6630.74 463.014C6634.2 462.087 6637.75 464.138 6638.68 467.594C6639.6 471.05 6637.55 474.603 6634.09 475.529L6589.46 487.492C6586 488.418 6582.45 486.367 6581.52 482.911C6580.6 479.456 6582.65 475.903 6586.1 474.977L6630.74 463.014Z" fill="black"/>
<path d="M6300.06 511.406C6303.52 510.48 6307.07 512.531 6307.99 515.987C6308.92 519.443 6306.87 522.995 6303.41 523.922L6258.78 535.886C6255.32 536.812 6251.77 534.761 6250.84 531.305C6249.92 527.849 6251.97 524.296 6255.42 523.37L6300.06 511.406Z" fill="black"/>
<path d="M6514.15 455.086C6514.15 443.398 6523.62 433.923 6535.31 433.923C6547 433.923 6556.48 443.399 6556.48 455.087C6556.48 466.774 6547 476.25 6535.31 476.25C6523.62 476.25 6514.15 466.774 6514.15 455.086Z" fill="black"/>
<path d="M6250.19 499.528C6250.19 495.95 6253.09 493.049 6256.67 493.049L6302.88 493.045C6306.46 493.045 6309.36 495.946 6309.36 499.524C6309.36 503.102 6306.46 506.003 6302.88 506.003L6256.67 506.005C6253.09 506.005 6250.19 503.106 6250.19 499.528Z" fill="black"/>
<path d="M6250.84 467.618C6251.77 464.162 6255.32 462.11 6258.77 463.036L6303.41 474.994C6306.87 475.92 6308.92 479.473 6307.99 482.929C6307.07 486.385 6303.52 488.436 6300.06 487.51L6255.42 475.552C6251.97 474.626 6249.91 471.074 6250.84 467.618Z" fill="black"/>
<path d="M6331.02 455.086C6331.02 443.399 6340.5 433.923 6352.19 433.923C6363.87 433.923 6373.35 443.399 6373.35 455.087C6373.35 466.775 6363.87 476.25 6352.19 476.25C6340.5 476.25 6331.02 466.774 6331.02 455.086Z" fill="black"/>
<path d="M6151.97 755.89L6087.24 753.059C6088.39 743.599 6089.71 733.987 6091.2 724.255L6151.97 755.89ZM6795.62 724.453C6797.13 734.122 6798.47 743.673 6799.64 753.074L6735.23 755.89L6795.62 724.453ZM6195.16 689.378L6097.88 685.124C6100.49 671.276 6103.36 657.279 6106.47 643.216L6195.16 689.378ZM6780.06 643.561C6783.21 657.516 6786.12 671.406 6788.77 685.148L6692.04 689.378L6780.06 643.561ZM6228.38 614.227L6114.4 609.244C6117.08 598.304 6119.89 587.366 6122.79 576.468C6124.13 571.441 6125.51 566.423 6126.92 561.417L6228.38 614.227ZM6759.29 561.935C6760.67 566.769 6762.02 571.614 6763.34 576.468C6766.31 587.378 6769.17 598.33 6771.9 609.283L6658.82 614.227L6759.29 561.935ZM6444.36 378.913L6421.28 309.566C6428.12 310.763 6435.17 311.433 6442.44 311.433C6451.18 311.433 6459.59 310.466 6467.71 308.781L6444.36 378.913ZM6373.15 292.711C6386.45 299.368 6400.6 305.169 6415.78 308.485L6377.55 366.436L6373.15 292.711ZM6511.84 366.436L6473 307.575C6488.48 303.727 6502.87 297.387 6516.38 290.338L6511.84 366.436Z" fill="#B15F00"/>
<defs>
<pattern id="pattern0_60_848" patternUnits="userSpaceOnUse" patternTransform="matrix(806.624 0 0 392.542 1529.55 515.307)" preserveAspectRatio="none" viewBox="49.1548 35.9358 901.477 438.702" width="1" height="1">
<use xlink:href="#pattern0_60_848_inner" transform="translate(0 -438.702)"/>
<use xlink:href="#pattern0_60_848_inner" transform="translate(450.739 -219.351)"/>
<g id="pattern0_60_848_inner">
<path d="M161.83 125.075C175.857 133.174 182.061 156.593 180.279 174.854C179.519 182.644 181.281 190.818 184.658 197.879C190.344 209.771 190.265 224.17 183.176 236.448C171.75 256.237 146.446 263.018 126.656 251.593C123.124 249.554 120.007 247.072 117.333 244.258C108.295 234.747 93.6183 226.273 80.8621 223.202C77.0889 222.293 73.3808 220.834 69.8487 218.795C50.0594 207.37 43.2795 182.064 54.7049 162.275C61.7933 149.998 74.2235 142.728 87.3646 141.707C95.1674 141.1 103.127 138.54 109.493 133.987C124.417 123.312 147.802 116.976 161.83 125.075ZM97.5763 66.461C111.208 74.3311 114.896 93.4616 105.816 109.19C96.7347 124.918 78.3228 131.289 64.6915 123.419C51.0602 115.549 47.3714 96.4185 56.4521 80.6901C65.533 64.9616 83.9449 58.591 97.5763 66.461ZM245.667 151.961C259.298 159.831 262.987 178.962 253.906 194.69C244.825 210.418 226.413 216.789 212.782 208.919C199.151 201.049 195.462 181.919 204.542 166.19C213.623 150.462 232.035 144.091 245.667 151.961ZM170.913 39.1875C184.282 46.9061 187.759 65.9134 178.679 81.6418C169.598 97.3702 151.398 103.863 138.029 96.1447C124.66 88.426 121.183 69.4181 130.264 53.6896C139.345 37.9614 157.544 31.4689 170.913 39.1875ZM232.618 74.8125C245.987 82.5311 249.464 101.538 240.383 117.267C231.302 132.995 213.103 139.488 199.733 131.77C186.364 124.051 182.888 105.043 191.968 89.3146C201.049 73.5864 219.249 67.0939 232.618 74.8125Z" fill="black"/>
</g>
<use xlink:href="#pattern0_60_848_inner" transform="translate(450.739 219.351)"/>
</pattern><pattern id="pattern1_60_848" patternUnits="userSpaceOnUse" patternTransform="matrix(806.624 0 0 392.542 1529.55 515.307)" preserveAspectRatio="none" viewBox="49.1548 35.9358 901.477 438.702" width="1" height="1">
<use xlink:href="#pattern1_60_848_inner" transform="translate(0 -438.702)"/>
<use xlink:href="#pattern1_60_848_inner" transform="translate(450.739 -219.351)"/>
<g id="pattern1_60_848_inner">
<path d="M161.83 125.075C175.857 133.174 182.061 156.593 180.279 174.854C179.519 182.644 181.281 190.818 184.658 197.879C190.344 209.771 190.265 224.17 183.176 236.448C171.75 256.237 146.446 263.018 126.656 251.593C123.124 249.554 120.007 247.072 117.333 244.258C108.295 234.747 93.6183 226.273 80.8621 223.202C77.0889 222.293 73.3808 220.834 69.8487 218.795C50.0594 207.37 43.2795 182.064 54.7049 162.275C61.7933 149.998 74.2235 142.728 87.3646 141.707C95.1674 141.1 103.127 138.54 109.493 133.987C124.417 123.312 147.802 116.976 161.83 125.075ZM97.5763 66.461C111.208 74.3311 114.896 93.4616 105.816 109.19C96.7347 124.918 78.3228 131.289 64.6915 123.419C51.0602 115.549 47.3714 96.4185 56.4521 80.6901C65.533 64.9616 83.9449 58.591 97.5763 66.461ZM245.667 151.961C259.298 159.831 262.987 178.962 253.906 194.69C244.825 210.418 226.413 216.789 212.782 208.919C199.151 201.049 195.462 181.919 204.542 166.19C213.623 150.462 232.035 144.091 245.667 151.961ZM170.913 39.1875C184.282 46.9061 187.759 65.9134 178.679 81.6418C169.598 97.3702 151.398 103.863 138.029 96.1447C124.66 88.426 121.183 69.4181 130.264 53.6896C139.345 37.9614 157.544 31.4689 170.913 39.1875ZM232.618 74.8125C245.987 82.5311 249.464 101.538 240.383 117.267C231.302 132.995 213.103 139.488 199.733 131.77C186.364 124.051 182.888 105.043 191.968 89.3146C201.049 73.5864 219.249 67.0939 232.618 74.8125Z" fill="black"/>
</g>
<use xlink:href="#pattern1_60_848_inner" transform="translate(450.739 219.351)"/>
</pattern><pattern id="pattern2_60_848" patternUnits="userSpaceOnUse" patternTransform="matrix(403.312 0 0 785.084 1529.55 515.307)" preserveAspectRatio="none" viewBox="49.1548 35.9358 450.739 877.404" width="1" height="1">
<use xlink:href="#pattern2_60_848_inner" transform="translate(-450.739 0)"/>
<g id="pattern2_60_848_inner">
<path d="M161.83 125.075C175.857 133.174 182.061 156.593 180.279 174.854C179.519 182.644 181.281 190.818 184.658 197.879C190.344 209.771 190.265 224.17 183.176 236.448C171.75 256.237 146.446 263.018 126.656 251.593C123.124 249.554 120.007 247.072 117.333 244.258C108.295 234.747 93.6183 226.273 80.8621 223.202C77.0889 222.293 73.3808 220.834 69.8487 218.795C50.0594 207.37 43.2795 182.064 54.7049 162.275C61.7933 149.998 74.2235 142.728 87.3646 141.707C95.1674 141.1 103.127 138.54 109.493 133.987C124.417 123.312 147.802 116.976 161.83 125.075ZM97.5763 66.461C111.208 74.3311 114.896 93.4616 105.816 109.19C96.7347 124.918 78.3228 131.289 64.6915 123.419C51.0602 115.549 47.3714 96.4185 56.4521 80.6901C65.533 64.9616 83.9449 58.591 97.5763 66.461ZM245.667 151.961C259.298 159.831 262.987 178.962 253.906 194.69C244.825 210.418 226.413 216.789 212.782 208.919C199.151 201.049 195.462 181.919 204.542 166.19C213.623 150.462 232.035 144.091 245.667 151.961ZM170.913 39.1875C184.282 46.9061 187.759 65.9134 178.679 81.6418C169.598 97.3702 151.398 103.863 138.029 96.1447C124.66 88.426 121.183 69.4181 130.264 53.6896C139.345 37.9614 157.544 31.4689 170.913 39.1875ZM232.618 74.8125C245.987 82.5311 249.464 101.538 240.383 117.267C231.302 132.995 213.103 139.488 199.733 131.77C186.364 124.051 182.888 105.043 191.968 89.3146C201.049 73.5864 219.249 67.0939 232.618 74.8125Z" fill="black"/>
</g>
<use xlink:href="#pattern2_60_848_inner" transform="translate(-225.369 438.702)"/>
<use xlink:href="#pattern2_60_848_inner" transform="translate(225.369 438.702)"/>
</pattern></defs>
</svg>
